<svg width="84" height="97" viewBox="0 0 84 97" fill="none" xmlns="http://www.w3.org/2000/svg">
<g id="Triangles">
<g id="Dark">
<path id="Dark2" opacity="0.7" d="M26.5 47.634C25.8333 48.0189 25.8333 48.9811 26.5 49.366L57.25 67.1195C57.9167 67.5044 58.75 67.0233 58.75 66.2535L58.75 30.7465C58.75 29.9767 57.9167 29.4956 57.25 29.8805L26.5 47.634Z" fill="#37ABFF"/>
<path id="Dark1" opacity="0.7" d="M15.5 47.634C14.8333 48.0189 14.8333 48.9811 15.5 49.366L46.25 67.1195C46.9167 67.5044 47.75 67.0233 47.75 66.2535L47.75 30.7465C47.75 29.9767 46.9167 29.4956 46.25 29.8805L15.5 47.634Z" fill="#37ABFF"/>
</g>
<g id="Light">
<path id="Light1" opacity="0.7" d="M15.5 47.634C14.8333 48.0189 14.8333 48.9811 15.5 49.366L46.25 67.1195C46.9167 67.5044 47.75 67.0233 47.75 66.2535L47.75 30.7465C47.75 29.9767 46.9167 29.4956 46.25 29.8805L15.5 47.634Z" fill="#76C5FF"/>
</g>
</g>
</svg>
