<svg width="107" height="123" viewBox="0 0 107 123" fill="none" xmlns="http://www.w3.org/2000/svg">
<circle cx="17.5" cy="19.5" r="17.5" fill="#FFFEFE"/>
<circle cx="17.5" cy="19.5" r="15.5" fill="#010101"/>
<path d="M16.168 14.168H18.44V31H16.168V14.168ZM17.32 10.488C16.8507 10.488 16.456 10.328 16.136 10.008C15.816 9.688 15.656 9.304 15.656 8.856C15.656 8.42933 15.816 8.056 16.136 7.736C16.456 7.416 16.8507 7.256 17.32 7.256C17.7893 7.256 18.184 7.416 18.504 7.736C18.824 8.03466 18.984 8.39733 18.984 8.824C18.984 9.29333 18.824 9.688 18.504 10.008C18.184 10.328 17.7893 10.488 17.32 10.488Z" fill="white"/>
</svg>
