<svg width="701" height="390" viewBox="0 0 701 390" fill="none" xmlns="http://www.w3.org/2000/svg">
<rect x="51" y="52" width="620" height="291" rx="24" fill="#D9D9D9"/>
<path d="M245.205 94.3482C255.177 110.23 271.874 170.366 269.5 206.595L185.5 174.595V73.5C185.5 73.5 235.233 78.4667 245.205 94.3482Z" fill="#E4E4E4"/>
<path d="M180.5 73.4255V174.5L96.5 201.5C94.3069 189 99 107 118.232 92.6553C137.464 78.3106 180.5 73.4255 180.5 73.4255Z" fill="white"/>
<path d="M316.024 222V154.8H343.672C349.624 154.8 354.712 155.76 358.936 157.68C363.224 159.6 366.52 162.352 368.824 165.936C371.128 169.52 372.28 173.776 372.28 178.704C372.28 183.632 371.128 187.888 368.824 191.472C366.52 194.992 363.224 197.712 358.936 199.632C354.712 201.488 349.624 202.416 343.672 202.416H322.936L328.504 196.752V222H316.024ZM359.992 222L343 197.616H356.344L373.432 222H359.992ZM328.504 198.096L322.936 192.144H343.096C348.6 192.144 352.728 190.96 355.48 188.592C358.296 186.224 359.704 182.928 359.704 178.704C359.704 174.416 358.296 171.12 355.48 168.816C352.728 166.512 348.6 165.36 343.096 165.36H322.936L328.504 159.216V198.096ZM408.131 222.672C402.883 222.672 398.211 221.552 394.115 219.312C390.019 217.008 386.787 213.872 384.419 209.904C382.051 205.936 380.867 201.424 380.867 196.368C380.867 191.248 382.051 186.736 384.419 182.832C386.787 178.864 390.019 175.76 394.115 173.52C398.211 171.28 402.883 170.16 408.131 170.16C413.443 170.16 418.147 171.28 422.243 173.52C426.403 175.76 429.635 178.832 431.939 182.736C434.307 186.64 435.491 191.184 435.491 196.368C435.491 201.424 434.307 205.936 431.939 209.904C429.635 213.872 426.403 217.008 422.243 219.312C418.147 221.552 413.443 222.672 408.131 222.672ZM408.131 212.4C411.075 212.4 413.699 211.76 416.003 210.48C418.307 209.2 420.099 207.344 421.379 204.912C422.723 202.48 423.395 199.632 423.395 196.368C423.395 193.04 422.723 190.192 421.379 187.824C420.099 185.392 418.307 183.536 416.003 182.256C413.699 180.976 411.107 180.336 408.227 180.336C405.283 180.336 402.659 180.976 400.355 182.256C398.115 183.536 396.323 185.392 394.979 187.824C393.635 190.192 392.963 193.04 392.963 196.368C392.963 199.632 393.635 202.48 394.979 204.912C396.323 207.344 398.115 209.2 400.355 210.48C402.659 211.76 405.251 212.4 408.131 212.4ZM466.262 222.672C460.63 222.672 456.278 221.232 453.206 218.352C450.134 215.408 448.598 211.088 448.598 205.392V159.408H460.598V205.104C460.598 207.536 461.206 209.424 462.422 210.768C463.702 212.112 465.462 212.784 467.702 212.784C470.39 212.784 472.63 212.08 474.422 210.672L477.782 219.216C476.374 220.368 474.646 221.232 472.598 221.808C470.55 222.384 468.438 222.672 466.262 222.672ZM440.15 180.72V171.12H474.326V180.72H440.15ZM519.237 222V211.632L518.565 209.424V191.28C518.565 187.76 517.509 185.04 515.397 183.12C513.285 181.136 510.085 180.144 505.797 180.144C502.917 180.144 500.069 180.592 497.253 181.488C494.501 182.384 492.165 183.632 490.245 185.232L485.541 176.496C488.293 174.384 491.557 172.816 495.333 171.792C499.173 170.704 503.141 170.16 507.237 170.16C514.661 170.16 520.389 171.952 524.421 175.536C528.517 179.056 530.565 184.528 530.565 191.952V222H519.237ZM503.109 222.672C499.269 222.672 495.909 222.032 493.029 220.752C490.149 219.408 487.909 217.584 486.309 215.28C484.773 212.912 484.005 210.256 484.005 207.312C484.005 204.432 484.677 201.84 486.021 199.536C487.429 197.232 489.701 195.408 492.837 194.064C495.973 192.72 500.133 192.048 505.317 192.048H520.197V200.016H506.181C502.085 200.016 499.333 200.688 497.925 202.032C496.517 203.312 495.813 204.912 495.813 206.832C495.813 209.008 496.677 210.736 498.405 212.016C500.133 213.296 502.533 213.936 505.605 213.936C508.549 213.936 511.173 213.264 513.477 211.92C515.845 210.576 517.541 208.592 518.565 205.968L520.581 213.168C519.429 216.176 517.349 218.512 514.341 220.176C511.397 221.84 507.653 222.672 503.109 222.672ZM565.262 222.672C559.63 222.672 555.278 221.232 552.206 218.352C549.134 215.408 547.598 211.088 547.598 205.392V159.408H559.598V205.104C559.598 207.536 560.206 209.424 561.422 210.768C562.702 212.112 564.462 212.784 566.702 212.784C569.39 212.784 571.63 212.08 573.422 210.672L576.782 219.216C575.374 220.368 573.646 221.232 571.598 221.808C569.55 222.384 567.438 222.672 565.262 222.672ZM539.15 180.72V171.12H573.326V180.72H539.15ZM609.062 222.672C603.366 222.672 598.374 221.552 594.086 219.312C589.862 217.008 586.566 213.872 584.198 209.904C581.894 205.936 580.742 201.424 580.742 196.368C580.742 191.248 581.862 186.736 584.102 182.832C586.406 178.864 589.542 175.76 593.51 173.52C597.542 171.28 602.118 170.16 607.238 170.16C612.23 170.16 616.678 171.248 620.582 173.424C624.486 175.6 627.558 178.672 629.798 182.64C632.038 186.608 633.158 191.28 633.158 196.656C633.158 197.168 633.126 197.744 633.062 198.384C633.062 199.024 633.03 199.632 632.966 200.208H590.246V192.24H626.63L621.926 194.736C621.99 191.792 621.382 189.2 620.102 186.96C618.822 184.72 617.062 182.96 614.822 181.68C612.646 180.4 610.118 179.76 607.238 179.76C604.294 179.76 601.702 180.4 599.462 181.68C597.286 182.96 595.558 184.752 594.278 187.056C593.062 189.296 592.454 191.952 592.454 195.024V196.944C592.454 200.016 593.158 202.736 594.566 205.104C595.974 207.472 597.958 209.296 600.518 210.576C603.078 211.856 606.022 212.496 609.35 212.496C612.23 212.496 614.822 212.048 617.126 211.152C619.43 210.256 621.478 208.848 623.27 206.928L629.702 214.32C627.398 217.008 624.486 219.088 620.966 220.56C617.51 221.968 613.542 222.672 609.062 222.672Z" fill="white"/>
<path d="M183 178.5L96 206C96 261.5 105.421 310 183 310C246.5 310 269.5 275 269.5 211.5L183 178.5Z" fill="#E4E4E4"/>
</svg>
