<svg width="701" height="390" viewBox="0 0 701 390" fill="none" xmlns="http://www.w3.org/2000/svg">
<rect x="51" y="52" width="620" height="291" rx="24" fill="#D9D9D9"/>
<path d="M245.205 94.3482C254.935 109.844 271.067 167.469 269.64 203.913C269.587 205.254 268.232 206.118 266.976 205.645L185.795 175.083C185.016 174.789 184.5 174.044 184.5 173.211V161.76C184.5 160.99 184.942 160.288 185.637 159.956L194.863 155.544C195.558 155.212 196 154.51 196 153.74V106.991C196 106.366 195.709 105.778 195.212 105.4L186.288 98.6003C185.791 98.222 185.5 97.6336 185.5 97.0095V75.7097C185.5 74.5265 186.517 73.6064 187.692 73.7487C197.408 74.9257 236.49 80.4688 245.205 94.3482Z" fill="#E4E4E4"/>
<path d="M118.232 92.6553C134.86 80.2523 169.285 74.9214 178.3 73.7054C179.483 73.5458 180.5 74.4715 180.5 75.6654V96.9166C180.5 97.5925 180.159 98.2226 179.593 98.5918L169.907 104.908C169.341 105.277 169 105.908 169 106.583V153.288C169 154.033 169.414 154.716 170.075 155.061L179.425 159.939C180.086 160.284 180.5 160.967 180.5 161.712V173.042C180.5 173.911 179.939 174.68 179.112 174.946L98.6853 200.798C97.5301 201.169 96.3332 200.476 96.2352 199.266C94.7849 181.372 99.9124 106.319 118.232 92.6553Z" fill="white"/>
<path d="M310.936 222V213.648L354.328 160.656L355.768 165.36H311.608V154.8H367V163.152L323.608 216.144L322.072 211.44H368.248V222H310.936ZM400.725 222.672C395.477 222.672 390.805 221.552 386.709 219.312C382.613 217.008 379.381 213.872 377.013 209.904C374.645 205.936 373.461 201.424 373.461 196.368C373.461 191.248 374.645 186.736 377.013 182.832C379.381 178.864 382.613 175.76 386.709 173.52C390.805 171.28 395.477 170.16 400.725 170.16C406.037 170.16 410.741 171.28 414.837 173.52C418.997 175.76 422.229 178.832 424.533 182.736C426.901 186.64 428.085 191.184 428.085 196.368C428.085 201.424 426.901 205.936 424.533 209.904C422.229 213.872 418.997 217.008 414.837 219.312C410.741 221.552 406.037 222.672 400.725 222.672ZM400.725 212.4C403.669 212.4 406.293 211.76 408.597 210.48C410.901 209.2 412.693 207.344 413.973 204.912C415.317 202.48 415.989 199.632 415.989 196.368C415.989 193.04 415.317 190.192 413.973 187.824C412.693 185.392 410.901 183.536 408.597 182.256C406.293 180.976 403.701 180.336 400.821 180.336C397.877 180.336 395.253 180.976 392.949 182.256C390.709 183.536 388.917 185.392 387.573 187.824C386.229 190.192 385.557 193.04 385.557 196.368C385.557 199.632 386.229 202.48 387.573 204.912C388.917 207.344 390.709 209.2 392.949 210.48C395.253 211.76 397.845 212.4 400.725 212.4ZM462.6 222.672C457.352 222.672 452.68 221.552 448.584 219.312C444.488 217.008 441.256 213.872 438.888 209.904C436.52 205.936 435.336 201.424 435.336 196.368C435.336 191.248 436.52 186.736 438.888 182.832C441.256 178.864 444.488 175.76 448.584 173.52C452.68 171.28 457.352 170.16 462.6 170.16C467.912 170.16 472.616 171.28 476.712 173.52C480.872 175.76 484.104 178.832 486.408 182.736C488.776 186.64 489.96 191.184 489.96 196.368C489.96 201.424 488.776 205.936 486.408 209.904C484.104 213.872 480.872 217.008 476.712 219.312C472.616 221.552 467.912 222.672 462.6 222.672ZM462.6 212.4C465.544 212.4 468.168 211.76 470.472 210.48C472.776 209.2 474.568 207.344 475.848 204.912C477.192 202.48 477.864 199.632 477.864 196.368C477.864 193.04 477.192 190.192 475.848 187.824C474.568 185.392 472.776 183.536 470.472 182.256C468.168 180.976 465.576 180.336 462.696 180.336C459.752 180.336 457.128 180.976 454.824 182.256C452.584 183.536 450.792 185.392 449.448 187.824C448.104 190.192 447.432 193.04 447.432 196.368C447.432 199.632 448.104 202.48 449.448 204.912C450.792 207.344 452.584 209.2 454.824 210.48C457.128 211.76 459.72 212.4 462.6 212.4ZM566.139 170.16C570.235 170.16 573.851 170.96 576.987 172.56C580.187 174.16 582.683 176.624 584.475 179.952C586.267 183.216 587.163 187.44 587.163 192.624V222H575.163V194.16C575.163 189.616 574.171 186.224 572.187 183.984C570.203 181.744 567.355 180.624 563.643 180.624C561.019 180.624 558.683 181.2 556.635 182.352C554.651 183.504 553.083 185.2 551.931 187.44C550.843 189.68 550.299 192.528 550.299 195.984V222H538.299V194.16C538.299 189.616 537.307 186.224 535.323 183.984C533.339 181.744 530.491 180.624 526.779 180.624C524.155 180.624 521.819 181.2 519.771 182.352C517.787 183.504 516.219 185.2 515.067 187.44C513.979 189.68 513.435 192.528 513.435 195.984V222H501.435V170.736H512.859V184.368L510.843 180.336C512.571 177.008 515.067 174.48 518.331 172.752C521.659 171.024 525.435 170.16 529.659 170.16C534.459 170.16 538.619 171.344 542.139 173.712C545.723 176.08 548.091 179.664 549.243 184.464L544.539 182.832C546.203 178.992 548.955 175.92 552.795 173.616C556.635 171.312 561.083 170.16 566.139 170.16Z" fill="white"/>
<path d="M316.024 222V154.8H343.672C349.624 154.8 354.712 155.76 358.936 157.68C363.224 159.6 366.52 162.352 368.824 165.936C371.128 169.52 372.28 173.776 372.28 178.704C372.28 183.632 371.128 187.888 368.824 191.472C366.52 194.992 363.224 197.712 358.936 199.632C354.712 201.488 349.624 202.416 343.672 202.416H322.936L328.504 196.752V222H316.024ZM359.992 222L343 197.616H356.344L373.432 222H359.992ZM328.504 198.096L322.936 192.144H343.096C348.6 192.144 352.728 190.96 355.48 188.592C358.296 186.224 359.704 182.928 359.704 178.704C359.704 174.416 358.296 171.12 355.48 168.816C352.728 166.512 348.6 165.36 343.096 165.36H322.936L328.504 159.216V198.096ZM408.131 222.672C402.883 222.672 398.211 221.552 394.115 219.312C390.019 217.008 386.787 213.872 384.419 209.904C382.051 205.936 380.867 201.424 380.867 196.368C380.867 191.248 382.051 186.736 384.419 182.832C386.787 178.864 390.019 175.76 394.115 173.52C398.211 171.28 402.883 170.16 408.131 170.16C413.443 170.16 418.147 171.28 422.243 173.52C426.403 175.76 429.635 178.832 431.939 182.736C434.307 186.64 435.491 191.184 435.491 196.368C435.491 201.424 434.307 205.936 431.939 209.904C429.635 213.872 426.403 217.008 422.243 219.312C418.147 221.552 413.443 222.672 408.131 222.672ZM408.131 212.4C411.075 212.4 413.699 211.76 416.003 210.48C418.307 209.2 420.099 207.344 421.379 204.912C422.723 202.48 423.395 199.632 423.395 196.368C423.395 193.04 422.723 190.192 421.379 187.824C420.099 185.392 418.307 183.536 416.003 182.256C413.699 180.976 411.107 180.336 408.227 180.336C405.283 180.336 402.659 180.976 400.355 182.256C398.115 183.536 396.323 185.392 394.979 187.824C393.635 190.192 392.963 193.04 392.963 196.368C392.963 199.632 393.635 202.48 394.979 204.912C396.323 207.344 398.115 209.2 400.355 210.48C402.659 211.76 405.251 212.4 408.131 212.4ZM466.262 222.672C460.63 222.672 456.278 221.232 453.206 218.352C450.134 215.408 448.598 211.088 448.598 205.392V159.408H460.598V205.104C460.598 207.536 461.206 209.424 462.422 210.768C463.702 212.112 465.462 212.784 467.702 212.784C470.39 212.784 472.63 212.08 474.422 210.672L477.782 219.216C476.374 220.368 474.646 221.232 472.598 221.808C470.55 222.384 468.438 222.672 466.262 222.672ZM440.15 180.72V171.12H474.326V180.72H440.15ZM519.237 222V211.632L518.565 209.424V191.28C518.565 187.76 517.509 185.04 515.397 183.12C513.285 181.136 510.085 180.144 505.797 180.144C502.917 180.144 500.069 180.592 497.253 181.488C494.501 182.384 492.165 183.632 490.245 185.232L485.541 176.496C488.293 174.384 491.557 172.816 495.333 171.792C499.173 170.704 503.141 170.16 507.237 170.16C514.661 170.16 520.389 171.952 524.421 175.536C528.517 179.056 530.565 184.528 530.565 191.952V222H519.237ZM503.109 222.672C499.269 222.672 495.909 222.032 493.029 220.752C490.149 219.408 487.909 217.584 486.309 215.28C484.773 212.912 484.005 210.256 484.005 207.312C484.005 204.432 484.677 201.84 486.021 199.536C487.429 197.232 489.701 195.408 492.837 194.064C495.973 192.72 500.133 192.048 505.317 192.048H520.197V200.016H506.181C502.085 200.016 499.333 200.688 497.925 202.032C496.517 203.312 495.813 204.912 495.813 206.832C495.813 209.008 496.677 210.736 498.405 212.016C500.133 213.296 502.533 213.936 505.605 213.936C508.549 213.936 511.173 213.264 513.477 211.92C515.845 210.576 517.541 208.592 518.565 205.968L520.581 213.168C519.429 216.176 517.349 218.512 514.341 220.176C511.397 221.84 507.653 222.672 503.109 222.672ZM565.262 222.672C559.63 222.672 555.278 221.232 552.206 218.352C549.134 215.408 547.598 211.088 547.598 205.392V159.408H559.598V205.104C559.598 207.536 560.206 209.424 561.422 210.768C562.702 212.112 564.462 212.784 566.702 212.784C569.39 212.784 571.63 212.08 573.422 210.672L576.782 219.216C575.374 220.368 573.646 221.232 571.598 221.808C569.55 222.384 567.438 222.672 565.262 222.672ZM539.15 180.72V171.12H573.326V180.72H539.15ZM609.062 222.672C603.366 222.672 598.374 221.552 594.086 219.312C589.862 217.008 586.566 213.872 584.198 209.904C581.894 205.936 580.742 201.424 580.742 196.368C580.742 191.248 581.862 186.736 584.102 182.832C586.406 178.864 589.542 175.76 593.51 173.52C597.542 171.28 602.118 170.16 607.238 170.16C612.23 170.16 616.678 171.248 620.582 173.424C624.486 175.6 627.558 178.672 629.798 182.64C632.038 186.608 633.158 191.28 633.158 196.656C633.158 197.168 633.126 197.744 633.062 198.384C633.062 199.024 633.03 199.632 632.966 200.208H590.246V192.24H626.63L621.926 194.736C621.99 191.792 621.382 189.2 620.102 186.96C618.822 184.72 617.062 182.96 614.822 181.68C612.646 180.4 610.118 179.76 607.238 179.76C604.294 179.76 601.702 180.4 599.462 181.68C597.286 182.96 595.558 184.752 594.278 187.056C593.062 189.296 592.454 191.952 592.454 195.024V196.944C592.454 200.016 593.158 202.736 594.566 205.104C595.974 207.472 597.958 209.296 600.518 210.576C603.078 211.856 606.022 212.496 609.35 212.496C612.23 212.496 614.822 212.048 617.126 211.152C619.43 210.256 621.478 208.848 623.27 206.928L629.702 214.32C627.398 217.008 624.486 219.088 620.966 220.56C617.51 221.968 613.542 222.672 609.062 222.672Z" fill="white"/>
<path d="M316.024 222V154.8H326.296L355.672 203.856H350.296L379.192 154.8H389.464L389.56 222H377.752L377.656 173.328H380.152L355.576 214.32H350.008L325.048 173.328H327.928V222H316.024ZM429.6 222.672C424.352 222.672 419.68 221.552 415.584 219.312C411.488 217.008 408.256 213.872 405.888 209.904C403.52 205.936 402.336 201.424 402.336 196.368C402.336 191.248 403.52 186.736 405.888 182.832C408.256 178.864 411.488 175.76 415.584 173.52C419.68 171.28 424.352 170.16 429.6 170.16C434.912 170.16 439.616 171.28 443.712 173.52C447.872 175.76 451.104 178.832 453.408 182.736C455.776 186.64 456.96 191.184 456.96 196.368C456.96 201.424 455.776 205.936 453.408 209.904C451.104 213.872 447.872 217.008 443.712 219.312C439.616 221.552 434.912 222.672 429.6 222.672ZM429.6 212.4C432.544 212.4 435.168 211.76 437.472 210.48C439.776 209.2 441.568 207.344 442.848 204.912C444.192 202.48 444.864 199.632 444.864 196.368C444.864 193.04 444.192 190.192 442.848 187.824C441.568 185.392 439.776 183.536 437.472 182.256C435.168 180.976 432.576 180.336 429.696 180.336C426.752 180.336 424.128 180.976 421.824 182.256C419.584 183.536 417.792 185.392 416.448 187.824C415.104 190.192 414.432 193.04 414.432 196.368C414.432 199.632 415.104 202.48 416.448 204.912C417.792 207.344 419.584 209.2 421.824 210.48C424.128 211.76 426.72 212.4 429.6 212.4ZM480.66 222L458.676 170.736H471.156L490.068 215.952H483.924L503.508 170.736H515.028L493.044 222H480.66ZM545.218 222.672C539.522 222.672 534.53 221.552 530.242 219.312C526.018 217.008 522.722 213.872 520.354 209.904C518.05 205.936 516.898 201.424 516.898 196.368C516.898 191.248 518.018 186.736 520.258 182.832C522.562 178.864 525.698 175.76 529.666 173.52C533.698 171.28 538.274 170.16 543.394 170.16C548.386 170.16 552.834 171.248 556.738 173.424C560.642 175.6 563.714 178.672 565.954 182.64C568.194 186.608 569.314 191.28 569.314 196.656C569.314 197.168 569.282 197.744 569.218 198.384C569.218 199.024 569.186 199.632 569.122 200.208H526.402V192.24H562.786L558.082 194.736C558.146 191.792 557.538 189.2 556.258 186.96C554.978 184.72 553.218 182.96 550.978 181.68C548.802 180.4 546.274 179.76 543.394 179.76C540.45 179.76 537.858 180.4 535.618 181.68C533.442 182.96 531.714 184.752 530.434 187.056C529.218 189.296 528.61 191.952 528.61 195.024V196.944C528.61 200.016 529.314 202.736 530.722 205.104C532.13 207.472 534.114 209.296 536.674 210.576C539.234 211.856 542.178 212.496 545.506 212.496C548.386 212.496 550.978 212.048 553.282 211.152C555.586 210.256 557.634 208.848 559.426 206.928L565.858 214.32C563.554 217.008 560.642 219.088 557.122 220.56C553.666 221.968 549.698 222.672 545.218 222.672Z" fill="white"/>
<path d="M182.335 178.71L97.3972 205.558C96.5654 205.821 95.9996 206.597 96.0022 207.47C96.1718 262.353 106.107 310 183 310C246.034 310 269.16 275.512 269.496 212.893C269.501 212.063 268.988 211.305 268.213 211.009L183.651 178.748C183.229 178.588 182.766 178.574 182.335 178.71Z" fill="#E4E4E4"/>
<rect x="171" y="103" width="23" height="53" rx="11.5" fill="#E4E4E4"/>
</svg>
