<svg width="736" height="263" viewBox="0 0 736 263" fill="none" xmlns="http://www.w3.org/2000/svg">
<path d="M531.15 128.045L315 131.484L315 133.511L526.878 135.919C530.248 135.957 533 133.236 533 129.866C533 128.849 532.167 128.029 531.15 128.045Z" fill="url(#paint0_linear_1_2)" stroke="white" stroke-width="2"/>
<path d="M317.932 235.967L314.533 134L312.476 134L310.183 230.345C310.096 233.995 313.03 237 316.681 237H316.932C317.498 237 317.951 236.532 317.932 235.967Z" fill="url(#paint1_linear_1_2)" stroke="white" stroke-width="2"/>
<path d="M309.068 29.0333L312.467 131L314.524 131L316.817 34.6547C316.904 31.0053 313.97 28 310.319 28H310.068C309.502 28 309.049 28.4683 309.068 29.0333Z" fill="url(#paint2_linear_1_2)" stroke="white" stroke-width="2"/>
<path d="M99.6352 128.09L311.5 131.46L311.5 133.487L95.3362 135.944C94.3255 135.955 93.4999 135.139 93.4999 134.128C93.4999 130.755 96.2627 128.036 99.6352 128.09Z" fill="url(#paint3_linear_1_2)" stroke="white" stroke-width="2"/>
<path d="M176.592 178V88.4H184.4L246.224 166.224H242.128V88.4H251.472V178H243.664L181.968 100.176H186.064V178H176.592Z" fill="black"/>
<path d="M312.76 178.768C306.019 178.768 299.747 177.659 293.944 175.44C288.227 173.136 283.235 169.936 278.968 165.84C274.787 161.659 271.501 156.837 269.112 151.376C266.808 145.829 265.656 139.771 265.656 133.2C265.656 126.629 266.808 120.613 269.112 115.152C271.501 109.605 274.787 104.784 278.968 100.688C283.235 96.5067 288.227 93.3067 293.944 91.088C299.661 88.784 305.933 87.632 312.76 87.632C319.501 87.632 325.731 88.784 331.448 91.088C337.165 93.3067 342.115 96.464 346.296 100.56C350.563 104.656 353.848 109.477 356.152 115.024C358.541 120.571 359.736 126.629 359.736 133.2C359.736 139.771 358.541 145.829 356.152 151.376C353.848 156.923 350.563 161.744 346.296 165.84C342.115 169.936 337.165 173.136 331.448 175.44C325.731 177.659 319.501 178.768 312.76 178.768ZM312.76 170.32C318.136 170.32 323.085 169.424 327.608 167.632C332.216 165.755 336.184 163.152 339.512 159.824C342.925 156.411 345.571 152.485 347.448 148.048C349.325 143.525 350.264 138.576 350.264 133.2C350.264 127.824 349.325 122.917 347.448 118.48C345.571 113.957 342.925 110.032 339.512 106.704C336.184 103.291 332.216 100.688 327.608 98.896C323.085 97.0187 318.136 96.08 312.76 96.08C307.384 96.08 302.392 97.0187 297.784 98.896C293.176 100.688 289.165 103.291 285.752 106.704C282.424 110.032 279.779 113.957 277.816 118.48C275.939 122.917 275 127.824 275 133.2C275 138.491 275.939 143.397 277.816 147.92C279.779 152.443 282.424 156.411 285.752 159.824C289.165 163.152 293.176 165.755 297.784 167.632C302.392 169.424 307.384 170.32 312.76 170.32Z" fill="black"/>
<path d="M397.064 178L357.384 88.4H367.624L404.744 172.752H399.112L436.488 88.4H446.088L406.408 178H397.064Z" fill="black"/>
<path d="M444.256 178L485.216 88.4H494.56L535.52 178H525.536L487.904 93.904H491.744L454.112 178H444.256ZM460.384 154.064L463.2 146.384H515.296L518.112 154.064H460.384Z" fill="black"/>
<path d="M544 175.144V169H608V175.144H544Z" fill="black"/>
<circle cx="313.5" cy="132.5" r="1.5" fill="#A02C2C"/>
<defs>
<linearGradient id="paint0_linear_1_2" x1="372.5" y1="132" x2="314" y2="132" gradientUnits="userSpaceOnUse">
<stop stop-color="#A02C2C"/>
<stop offset="1" stop-color="#FF7070" stop-opacity="0"/>
</linearGradient>
<linearGradient id="paint1_linear_1_2" x1="314" y1="199.5" x2="314" y2="141" gradientUnits="userSpaceOnUse">
<stop stop-color="#A02C2C"/>
<stop offset="1" stop-color="#FF7070" stop-opacity="0"/>
</linearGradient>
<linearGradient id="paint2_linear_1_2" x1="315.5" y1="56.5" x2="313" y2="126.5" gradientUnits="userSpaceOnUse">
<stop stop-color="#A02C2C"/>
<stop offset="1" stop-color="#FF7070" stop-opacity="0"/>
</linearGradient>
<linearGradient id="paint3_linear_1_2" x1="202.5" y1="126.976" x2="322.5" y2="127" gradientUnits="userSpaceOnUse">
<stop stop-color="#A02C2C"/>
<stop offset="1" stop-color="#FF7070" stop-opacity="0"/>
</linearGradient>
</defs>
</svg>
