<svg width="538" height="69" viewBox="0 0 538 69" fill="none" xmlns="http://www.w3.org/2000/svg">
<path d="M25.472 68.576C20.48 68.576 15.68 67.776 11.072 66.176C6.528 64.512 3.008 62.4 0.512 59.84L3.296 54.368C5.664 56.672 8.832 58.624 12.8 60.224C16.832 61.76 21.056 62.528 25.472 62.528C29.696 62.528 33.12 62.016 35.744 60.992C38.432 59.904 40.384 58.464 41.6 56.672C42.88 54.88 43.52 52.896 43.52 50.72C43.52 48.096 42.752 45.984 41.216 44.384C39.744 42.784 37.792 41.536 35.36 40.64C32.928 39.68 30.24 38.848 27.296 38.144C24.352 37.44 21.408 36.704 18.464 35.936C15.52 35.104 12.8 34.016 10.304 32.672C7.872 31.328 5.888 29.568 4.352 27.392C2.88 25.152 2.144 22.24 2.144 18.656C2.144 15.328 3.008 12.288 4.736 9.536C6.528 6.72 9.248 4.48 12.896 2.816C16.544 1.088 21.216 0.223997 26.912 0.223997C30.688 0.223997 34.432 0.767998 38.144 1.856C41.856 2.88 45.056 4.32 47.744 6.17599L45.344 11.84C42.464 9.92 39.392 8.512 36.128 7.616C32.928 6.72 29.824 6.272 26.816 6.272C22.784 6.272 19.456 6.816 16.832 7.904C14.208 8.992 12.256 10.464 10.976 12.32C9.76 14.112 9.152 16.16 9.152 18.464C9.152 21.088 9.888 23.2 11.36 24.8C12.896 26.4 14.88 27.648 17.312 28.544C19.808 29.44 22.528 30.24 25.472 30.944C28.416 31.648 31.328 32.416 34.208 33.248C37.152 34.08 39.84 35.168 42.272 36.512C44.768 37.792 46.752 39.52 48.224 41.696C49.76 43.872 50.528 46.72 50.528 50.24C50.528 53.504 49.632 56.544 47.84 59.36C46.048 62.112 43.296 64.352 39.584 66.08C35.936 67.744 31.232 68.576 25.472 68.576ZM93.0785 68.576C84.5025 68.576 77.7505 66.112 72.8225 61.184C67.8945 56.256 65.4305 48.96 65.4305 39.296V0.799995H72.5345V39.008C72.5345 46.944 74.3265 52.8 77.9105 56.576C81.4945 60.352 86.5505 62.24 93.0785 62.24C99.6705 62.24 104.759 60.352 108.343 56.576C111.927 52.8 113.719 46.944 113.719 39.008V0.799995H120.631V39.296C120.631 48.96 118.167 56.256 113.239 61.184C108.375 66.112 101.655 68.576 93.0785 68.576ZM142.038 68V0.799995H171.03C178.518 0.799995 184.31 2.304 188.406 5.31199C192.566 8.32 194.646 12.576 194.646 18.08C194.646 21.728 193.782 24.8 192.054 27.296C190.39 29.792 188.086 31.68 185.142 32.96C182.262 34.24 179.094 34.88 175.638 34.88L177.27 32.576C181.558 32.576 185.238 33.248 188.31 34.592C191.446 35.872 193.878 37.824 195.606 40.448C197.334 43.008 198.198 46.208 198.198 50.048C198.198 55.744 196.086 60.16 191.862 63.296C187.702 66.432 181.398 68 172.95 68H142.038ZM149.142 62.144H172.854C178.742 62.144 183.254 61.152 186.39 59.168C189.526 57.12 191.094 53.888 191.094 49.472C191.094 45.12 189.526 41.952 186.39 39.968C183.254 37.92 178.742 36.896 172.854 36.896H148.374V31.04H170.55C175.926 31.04 180.086 30.016 183.03 27.968C186.038 25.92 187.542 22.88 187.542 18.848C187.542 14.752 186.038 11.712 183.03 9.72799C180.086 7.67999 175.926 6.65599 170.55 6.65599H149.142V62.144ZM214.413 68V0.799995H241.773C248.941 0.799995 255.213 2.24 260.589 5.12C266.029 7.936 270.253 11.872 273.261 16.928C276.269 21.984 277.773 27.808 277.773 34.4C277.773 40.992 276.269 46.816 273.261 51.872C270.253 56.928 266.029 60.896 260.589 63.776C255.213 66.592 248.941 68 241.773 68H214.413ZM221.517 61.856H241.389C247.341 61.856 252.493 60.704 256.845 58.4C261.261 56.032 264.685 52.8 267.117 48.704C269.549 44.544 270.765 39.776 270.765 34.4C270.765 28.96 269.549 24.192 267.117 20.096C264.685 16 261.261 12.8 256.845 10.496C252.493 8.128 247.341 6.944 241.389 6.944H221.517V61.856ZM337.378 68.576C332.386 68.576 327.586 67.776 322.978 66.176C318.434 64.512 314.914 62.4 312.418 59.84L315.202 54.368C317.57 56.672 320.738 58.624 324.706 60.224C328.738 61.76 332.962 62.528 337.378 62.528C341.602 62.528 345.026 62.016 347.65 60.992C350.338 59.904 352.29 58.464 353.506 56.672C354.786 54.88 355.426 52.896 355.426 50.72C355.426 48.096 354.658 45.984 353.122 44.384C351.65 42.784 349.698 41.536 347.266 40.64C344.834 39.68 342.146 38.848 339.202 38.144C336.258 37.44 333.314 36.704 330.37 35.936C327.426 35.104 324.706 34.016 322.21 32.672C319.778 31.328 317.794 29.568 316.258 27.392C314.786 25.152 314.05 22.24 314.05 18.656C314.05 15.328 314.914 12.288 316.642 9.536C318.434 6.72 321.154 4.48 324.802 2.816C328.45 1.088 333.122 0.223997 338.818 0.223997C342.594 0.223997 346.338 0.767998 350.05 1.856C353.762 2.88 356.962 4.32 359.65 6.17599L357.25 11.84C354.37 9.92 351.298 8.512 348.034 7.616C344.834 6.72 341.73 6.272 338.722 6.272C334.69 6.272 331.362 6.816 328.738 7.904C326.114 8.992 324.162 10.464 322.882 12.32C321.666 14.112 321.058 16.16 321.058 18.464C321.058 21.088 321.794 23.2 323.266 24.8C324.802 26.4 326.786 27.648 329.218 28.544C331.714 29.44 334.434 30.24 337.378 30.944C340.322 31.648 343.234 32.416 346.114 33.248C349.058 34.08 351.746 35.168 354.178 36.512C356.674 37.792 358.658 39.52 360.13 41.696C361.666 43.872 362.434 46.72 362.434 50.24C362.434 53.504 361.538 56.544 359.746 59.36C357.954 62.112 355.202 64.352 351.49 66.08C347.842 67.744 343.138 68.576 337.378 68.576ZM427.065 0.799995H434.073V68H427.065V0.799995ZM385.017 68H377.913V0.799995H385.017V68ZM427.737 36.992H384.249V30.752H427.737V36.992ZM456.007 68V0.799995H463.111V68H456.007ZM484.975 68V0.799995H510.127C515.823 0.799995 520.719 1.728 524.815 3.584C528.911 5.376 532.047 8 534.223 11.456C536.463 14.848 537.583 18.976 537.583 23.84C537.583 28.576 536.463 32.672 534.223 36.128C532.047 39.52 528.911 42.144 524.815 44C520.719 45.856 515.823 46.784 510.127 46.784H488.911L492.079 43.424V68H484.975ZM492.079 44L488.911 40.544H509.935C516.655 40.544 521.743 39.104 525.199 36.224C528.719 33.28 530.479 29.152 530.479 23.84C530.479 18.464 528.719 14.304 525.199 11.36C521.743 8.416 516.655 6.944 509.935 6.944H488.911L492.079 3.584V44Z" fill="white"/>
</svg>
